# xmcd
#
# Track frame offsets:
#	187
#	11462
#	26137
#	39505
#	54175
#	70737
#	86062
#	103500
#	120357
#	140112
#	157012
#	174525
#	191512
#	205605
#	222232
#	244022
#	261132
#	277787
#	304012
#
# Disc length: 4265 seconds
#
# Revision: 1
# Processed by: cddbd v1.5PL3 Copyright (c) Steve Scherf et al.
# Submitted via: CDex 1.50Beta5
#
DISCID=0010a713
DTITLE=小椋佳 - 遠ざかる風景
DYEAR=1900
DGENRE=World -> Japanese Folk
TTITLE0=イントロダクション
TTITLE1=しおさいの詩
TTITLE2=六月の雨
TTITLE3=俺達の旅
TTITLE4=時
TTITLE5=少しは私に愛を下さい
TTITLE6=飛べない蝙蝠
TTITLE7=思い込み
TTITLE8=スタンドスティル
TTITLE9=揺れるまなざし
TTITLE10=白い一日
TTITLE11=ほんの二つで死んでゆく
TTITLE12=遠きにありて
TTITLE13=めまい
TTITLE14=屋根のない車
TTITLE15=身辺抄
TTITLE16=シクラメンのかほり
TTITLE17=木戸をあけて
TTITLE18=さらば青春
EXTD=
EXTT0=
EXTT1=
EXTT2=
EXTT3=
EXTT4=
EXTT5=
EXTT6=
EXTT7=
EXTT8=
EXTT9=
EXTT10=
EXTT11=
EXTT12=
EXTT13=
EXTT14=
EXTT15=
EXTT16=
EXTT17=
EXTT18=
PLAYORDER=
